<?xml version="1.0" encoding="utf-8"?>
<!-- Generator: Adobe Illustrator 25.2.3, SVG Export Plug-In . SVG Version: 6.00 Build 0)  -->
<svg version="1.1" id="Layer_1" xmlns="http://www.w3.org/2000/svg" xmlns:xlink="http://www.w3.org/1999/xlink" x="0px" y="0px"
	 viewBox="0 0 150 50" style="enable-background:new 0 0 150 50;" xml:space="preserve">
<style type="text/css">
	.st0{fill:#FFFFFF;stroke:#FFFFFF;stroke-width:0.5;stroke-miterlimit:10;}
	.st1{fill:#FFFFFF;}
	.st2{fill:none;stroke:#FFFFFF;stroke-miterlimit:10;}
</style>
<g>
	<g>
		<path class="st0" d="M16.8,23.3c-0.9,3-3,5.3-6.8,5.3c-5.2,0-7.9-4.3-7.9-9.7c0-5.1,2.7-9.8,7.9-9.8c3.9,0,6.2,2.3,6.8,5.4h-1.4
			c-0.8-2.5-2.3-4.1-5.5-4.1c-4.5,0-6.4,4.3-6.4,8.4s1.9,8.3,6.5,8.3c2.9,0,4.4-1.6,5.3-3.9h1.5V23.3z"/>
		<path class="st0" d="M21.8,9.4v11.5c0,5,2.7,6.3,5.3,6.3c3,0,5.3-1.3,5.3-6.3V9.4h1.4v11.4c0,5.9-3,7.8-6.7,7.8
			c-3.6,0-6.6-2-6.6-7.5V9.4H21.8z"/>
		<path class="st0" d="M40.1,19.5v8.8h-1.4V9.4h6.5c3.6,0,5.4,2,5.4,5c0,2.4-1.4,4-3.4,4.4c1.9,0.5,3.1,1.7,3.1,4.9v0.7
			c0,1.3-0.1,3.1,0.2,3.8h-1.4c-0.3-0.8-0.3-2.3-0.3-3.9v-0.5c0-3.1-0.9-4.4-4.3-4.4h-4.4V19.5z M40.1,18.1h4.4
			c3.2,0,4.6-1.2,4.6-3.7c0-2.3-1.4-3.7-4.2-3.7h-4.7L40.1,18.1L40.1,18.1z"/>
		<path class="st0" d="M58.5,10.7h-6.1V9.4H66v1.4h-6.1v17.6h-1.4V10.7z"/>
		<path class="st0" d="M70.5,21.8l-2.3,6.5h-1.4l6.6-18.9H75l7,18.9h-1.5l-2.3-6.5H70.5z M77.7,20.4c-2-5.6-3-8.3-3.4-9.6l0,0
			c-0.4,1.4-1.6,4.8-3.2,9.6H77.7z"/>
		<path class="st0" d="M86.6,19.5v8.8h-1.4V9.4h6.5c3.6,0,5.4,2,5.4,5c0,2.4-1.4,4-3.4,4.4c1.9,0.5,3.1,1.7,3.1,4.9v0.7
			c0,1.3-0.1,3.1,0.2,3.8h-1.4c-0.3-0.8-0.3-2.3-0.3-3.9v-0.5c0-3.1-0.9-4.4-4.3-4.4h-4.4V19.5z M86.6,18.1H91
			c3.2,0,4.6-1.2,4.6-3.7c0-2.3-1.4-3.7-4.2-3.7h-4.7v7.4H86.6z"/>
		<path class="st0" d="M116.5,18.7c0,5.2-2.6,9.9-8.2,9.9c-5.1,0-8-4.3-8-9.7s2.9-9.7,8.2-9.7C113.4,9.1,116.5,13.2,116.5,18.7z
			 M101.8,18.8c0,4.4,2.3,8.5,6.6,8.5c4.7,0,6.6-4,6.6-8.5c0-4.4-2.2-8.3-6.6-8.3C103.8,10.5,101.8,14.5,101.8,18.8z"/>
		<path class="st0" d="M120.5,9.4h1.4V27h9.7l-0.3,1.4h-10.8V9.4z"/>
		<path class="st0" d="M149.6,18.7c0,5.2-2.6,9.9-8.2,9.9c-5.1,0-8-4.3-8-9.7s2.9-9.7,8.2-9.7C146.6,9.1,149.6,13.2,149.6,18.7z
			 M134.9,18.8c0,4.4,2.3,8.5,6.6,8.5c4.7,0,6.6-4,6.6-8.5c0-4.4-2.2-8.3-6.6-8.3C136.9,10.5,134.9,14.5,134.9,18.8z"/>
	</g>
</g>
<g>
	<g>
		<path class="st1" d="M25.9,40.9c0-2.5,0-4.8,0.1-6.1h-0.1c-0.5,1.7-3,7.9-4.6,11.9h-0.9c-1.2-3.1-3.8-10-4.4-12l0,0
			c0.1,1.4,0.1,4.4,0.1,6.6v5.4h-1V34.1h1.4c1.7,4.3,3.9,10,4.3,11.5l0,0c0.3-0.9,2.8-7.2,4.5-11.5h1.4v12.7h-1v-5.9H25.9z"/>
		<path class="st1" d="M31.6,42.4L30,46.8h-1l4.6-12.7h1.1l4.8,12.7h-1l-1.6-4.4H31.6z M36.6,41.5c-1.4-3.8-2.1-5.6-2.3-6.4l0,0
			c-0.3,1-1.1,3.2-2.2,6.4H36.6z"/>
		<path class="st1" d="M44.3,35h-4.2v-0.9h9.4V35h-4.2v11.8h-1V35z"/>
		<path class="st1" d="M58.6,40.5h-6.4v5.3h7l-0.1,0.9h-7.8V34.1H59V35h-6.7v4.6h6.4v0.9H58.6z"/>
		<path class="st1" d="M62.7,40.8v5.9h-1V34.1h4.5c2.5,0,3.8,1.3,3.8,3.3c0,1.6-0.9,2.7-2.3,3c1.3,0.3,2.1,1.2,2.1,3.3v0.5
			c0,0.9-0.1,2.1,0.2,2.6h-1c-0.2-0.5-0.2-1.6-0.2-2.6v-0.3c0-2.1-0.6-3-3-3h-3.1V40.8z M62.7,39.9h3c2.2,0,3.2-0.8,3.2-2.5
			c0-1.6-1-2.4-2.9-2.4h-3.3C62.7,35,62.7,39.9,62.7,39.9z"/>
		<path class="st1" d="M73.8,34.1v12.7h-1V34.1H73.8z"/>
		<path class="st1" d="M78.6,42.4L77,46.8h-1l4.6-12.7h1.1l4.8,12.7h-1l-1.6-4.4C83.9,42.4,78.6,42.4,78.6,42.4z M83.5,41.5
			c-1.4-3.8-2.1-5.6-2.3-6.4l0,0c-0.3,1-1.1,3.2-2.2,6.4H83.5z"/>
		<path class="st1" d="M88.7,34.1h1v11.8h6.7l-0.2,0.9h-7.5V34.1z"/>
		<path class="st1" d="M98.5,43.4C98.9,45,100,46,102,46c2.3,0,3.1-1.2,3.1-2.5c0-1.4-0.6-2.3-3.4-3C99.2,39.8,98,39,98,37.1
			c0-1.7,1.2-3.2,3.9-3.2c2.7,0,3.9,1.7,4.1,3.2h-1c-0.3-1.4-1.2-2.3-3.1-2.3c-1.8,0-2.8,0.9-2.8,2.3s0.8,1.9,3.1,2.5
			c3.5,0.9,4,2.3,4,3.8c0,1.9-1.3,3.5-4.2,3.5c-3.1,0-4.3-1.8-4.5-3.5C97.5,43.4,98.5,43.4,98.5,43.4z"/>
		<path class="st1" d="M113.5,34.1h1v11.8h6.7l-0.2,0.9h-7.5V34.1z"/>
		<path class="st1" d="M124.4,42.4l-1.6,4.4h-1l4.6-12.7h1.1l4.8,12.7h-1l-1.6-4.4H124.4z M129.4,41.5c-1.4-3.8-2.1-5.6-2.3-6.4l0,0
			c-0.3,1-1.1,3.2-2.2,6.4H129.4z"/>
		<path class="st1" d="M134.6,34.1h4.3c2.4,0,3.7,1.3,3.7,3.1c0,1.5-0.9,2.5-1.9,2.8c0.9,0.3,2.4,1.1,2.4,3.1c0,2.5-1.9,3.7-4,3.7
			h-4.4V34.1H134.6z M138.6,39.5c2.2,0,3-0.8,3-2.3c0-1.2-0.9-2.3-2.6-2.3h-3.5v4.5L138.6,39.5L138.6,39.5z M135.5,45.8h3.5
			c1.6,0,3-0.8,3-2.7c0-1.6-1-2.7-3.5-2.7h-3V45.8z"/>
	</g>
</g>
<line class="st2" x1="12.6" y1="31.4" x2="146.8" y2="31.8"/>
<line class="st2" x1="13.4" y1="27.3" x2="13.6" y2="27.3"/>
</svg>
