<?xml version="1.0" encoding="utf-8"?>
<!-- Generator: Adobe Illustrator 25.2.3, SVG Export Plug-In . SVG Version: 6.00 Build 0)  -->
<svg version="1.1" id="Layer_1" xmlns="http://www.w3.org/2000/svg" xmlns:xlink="http://www.w3.org/1999/xlink" x="0px" y="0px"
	 viewBox="0 0 50 50" style="enable-background:new 0 0 50 50;" xml:space="preserve">
<style type="text/css">
	.st0{fill:#333333;}
</style>
<g>
	<path class="st0" d="M35.4,2.8c1.2,0,2.2,1,2.2,2.2v29.4c0,1.2-1,2.2-2.2,2.2H9.2c-1.2,0-2.2-1-2.2-2.2V4.9c0-1.2,1-2.2,2.2-2.2
		H35.4 M35.4,2H9.2C7.6,2,6.3,3.3,6.3,4.9v29.4c0,1.6,1.3,2.9,2.9,2.9h26.2c1.6,0,2.9-1.3,2.9-2.9V4.9C38.3,3.3,37,2,35.4,2L35.4,2z
		"/>
</g>
<g>
	<path class="st0" d="M46.1,8.9c1.2,0,2.2,1,2.2,2.2v29.4c0,1.2-1,2.2-2.2,2.2H19.9c-1.2,0-2.2-1-2.2-2.2V11c0-1.2,1-2.2,2.2-2.2
		H46.1 M46.1,8.1H19.9C18.3,8.1,17,9.4,17,11v29.4c0,1.6,1.3,2.9,2.9,2.9h26.2c1.6,0,2.9-1.3,2.9-2.9V11C49,9.4,47.7,8.1,46.1,8.1
		L46.1,8.1z"/>
</g>
<g>
	<path class="st0" d="M30.1,13.5c1.2,0,2.2,1,2.2,2.2v29.4c0,1.2-1,2.2-2.2,2.2H3.9c-1.2,0-2.2-1-2.2-2.2V15.6c0-1.2,1-2.2,2.2-2.2
		H30.1 M30.1,12.7H3.9C2.3,12.7,1,14,1,15.6v29.4C1,46.7,2.3,48,3.9,48h26.2c1.6,0,2.9-1.3,2.9-2.9V15.6C33,14,31.7,12.7,30.1,12.7
		L30.1,12.7z"/>
</g>
</svg>
