<?xml version="1.0" encoding="utf-8"?>
<!-- Generator: Adobe Illustrator 25.2.3, SVG Export Plug-In . SVG Version: 6.00 Build 0)  -->
<svg version="1.1" id="Layer_1" xmlns="http://www.w3.org/2000/svg" xmlns:xlink="http://www.w3.org/1999/xlink" x="0px" y="0px"
	 viewBox="0 0 50 50" style="enable-background:new 0 0 50 50;" xml:space="preserve">
<style type="text/css">
	.st0{fill:none;stroke:#000000;stroke-width:0.75;stroke-miterlimit:10;}
	.st1{fill:none;stroke:#000000;stroke-width:0.25;stroke-miterlimit:10;}
</style>
<polygon class="st0" points="33.1,29.1 1.5,29.1 14.3,7.2 43.7,7.2 "/>
<path class="st0" d="M7,23.4"/>
<path class="st0" d="M38.6,16.6"/>
<path class="st0" d="M13.5,16.6"/>
<path class="st0" d="M7,20.9"/>
<path class="st0" d="M9.8,26.7"/>
<path class="st0" d="M36.5,22.4"/>
<path class="st1" d="M39.7,16.1"/>
<path class="st1" d="M36.2,16.5"/>
<path class="st1" d="M37.1,16.5"/>
<path class="st1" d="M38.6,17"/>
<polyline class="st0" points="40.6,13.6 46.3,13.6 35.7,35.5 4.1,35.5 7.8,29.1 "/>
<path class="st0" d="M40.6,13.6"/>
<path class="st0" d="M16.8,13.6"/>
<path class="st0" d="M16.8,13.6"/>
<path class="st0" d="M7.8,29.1"/>
<path class="st0" d="M14,29.1"/>
<path class="st0" d="M10.3,35.5"/>
<polyline class="st0" points="43.1,20.1 48.6,20.1 38.1,42 6.5,42 10.3,35.5 "/>
<path class="st0" d="M43.1,20.1"/>
<path class="st0" d="M37.5,20.1"/>
<path class="st0" d="M37.5,20.1"/>
<path class="st0" d="M19.2,20.1"/>
<path class="st0" d="M19.2,20.1"/>
<path class="st0" d="M14,29.1"/>
</svg>
