<?xml version="1.0" encoding="utf-8"?>
<!-- Generator: Adobe Illustrator 25.2.3, SVG Export Plug-In . SVG Version: 6.00 Build 0)  -->
<svg version="1.1" id="Layer_1" xmlns="http://www.w3.org/2000/svg" xmlns:xlink="http://www.w3.org/1999/xlink" x="0px" y="0px"
	 viewBox="0 0 50 50" style="enable-background:new 0 0 50 50;" xml:space="preserve">
<style type="text/css">
	.st0{fill:#666666;}
	.st1{fill:#4D4D4D;}
	.st2{fill:#333333;}
</style>
<g>
	<path class="st0" d="M18,2.8c9,0,16.3,7.6,16.3,16.9S27,36.5,18,36.5S1.7,28.9,1.7,19.6S9.1,2.8,18,2.8 M18,2C8.6,2,1,9.9,1,19.6
		s7.6,17.6,17,17.6s17-7.9,17-17.6S27.4,2,18,2L18,2z"/>
</g>
<g>
	<path class="st1" d="M24.3,8c9,0,16.3,7.6,16.3,16.9s-7.3,16.9-16.3,16.9S8.1,34.2,8.1,24.8S15.4,8,24.3,8 M24.3,7.2
		c-9.4,0-17,7.9-17,17.6s7.6,17.6,17,17.6c9.4,0,17-7.9,17-17.6S33.7,7.2,24.3,7.2L24.3,7.2z"/>
</g>
<g>
	<path class="st2" d="M32,13.5c9,0,16.3,7.6,16.3,16.9S40.9,47.2,32,47.2s-16.3-7.6-16.3-16.9S23,13.5,32,13.5 M32,12.8
		c-9.4,0-17,7.9-17,17.6S22.6,48,32,48s17-7.9,17-17.6S41.4,12.8,32,12.8L32,12.8z"/>
</g>
</svg>
